#Comment line ignore any data following # character 
#Hierarchical Translation and Rotation (.htr) file 
[Header]	
#Header keywords are followed by a single value 
FileType HTR		#Single word string
DataType HTRS		#Translation followed by rotation and scale data
FileVersion 1		#integer
NumSegments 64		#integer
NumFrames 3		#integer
DataFrameRate 30		#integer, data frame rate in this file
EulerRotationOrder ZYX
CalibrationUnits mm
RotationUnits Degrees
GlobalAxisofGravity Y
BoneLengthAxis Y
ScaleFactor 1.00
[SegmentNames&Hierarchy]
#CHILD	PARENT
Pinger_Root GLOBAL
Pelvis Pinger_Root
L_Hip Pelvis
R_Hip Pelvis
Rear_Leg01 Pelvis
Spine1 Pelvis
L_Leg01 L_Hip
L_Leg02 L_Leg01
L_Leg03 L_Leg02
L_Foot L_Leg03
L_Toe1_01 L_Foot
L_Toe2_01 L_Foot
L_Toe3_01 L_Foot
planeAlignerLeft L_Foot
L_Toe1_02 L_Toe1_01
L_Toe1_03 L_Toe1_02
L_Toe2_02 L_Toe2_01
L_Toe2_03 L_Toe2_02
L_Toe3_02 L_Toe3_01
L_Toe3_03 L_Toe3_02
planeLockWeightLeft planeAlignerLeft
R_Leg01 R_Hip
R_Leg02 R_Leg01
R_Leg03 R_Leg02
R_Foot R_Leg03
planeAlignerRight R_Foot
R_Toe1_01 R_Foot
R_Toe2_01 R_Foot
R_Toe3_01 R_Foot
planeLockWeightRight planeAlignerRight
R_Toe1_02 R_Toe1_01
R_Toe1_03 R_Toe1_02
R_Toe2_02 R_Toe2_01
R_Toe2_03 R_Toe2_02
R_Toe3_02 R_Toe3_01
R_Toe3_03 R_Toe3_02
Rear_Leg02 Rear_Leg01
Rear_Leg03 Rear_Leg02
Rear_Leg04 Rear_Leg03
Rear_Foot Rear_Leg04
planeAlignerCenter Rear_Foot
Rear_Toe1_01 Rear_Foot
Rear_Toe2_01 Rear_Foot
Rear_Toe3_01 Rear_Foot
planeLockWeightCenter planeAlignerCenter
Rear_Toe1_02 Rear_Toe1_01
Rear_Toe1_03 Rear_Toe1_02
Rear_Toe2_02 Rear_Toe2_01
Rear_Toe2_03 Rear_Toe2_02
Rear_Toe3_02 Rear_Toe3_01
Rear_Toe3_03 Rear_Toe3_02
Back_Bone Spine1
Head Spine1
Motor_Bone Back_Bone
Ping_Mechanism Back_Bone
BN_LookIK Head
bottomMouth Head
L_Mouth01 Head
L_mouthFront Head
mouthGun Head
R_Mouth01 Head
R_mouthFront Head
TopMouth Head
weapon_bone Head
[BasePosition]
#SegmentName Tx, Ty, Tz, Rx, Ry, Rz, BoneLength
Pinger_Root 0.000000 0.000000 0.000000 -90.000000 0.000000 0.000000 10.000000 
Pelvis 0.000000 0.000000 0.000000 0.000000 0.000000 0.000000 10.000000 
L_Hip 0.000000 0.000000 0.000000 0.000000 0.000000 0.000000 10.000000 
R_Hip 0.000000 0.000000 0.000000 0.000000 0.000000 0.000000 10.000000 
Rear_Leg01 0.000000 0.000000 0.000000 0.000000 0.000000 0.000000 10.000000 
Spine1 0.000000 0.000000 0.000000 0.000000 0.000000 0.000000 10.000000 
L_Leg01 0.000000 0.000000 0.000000 0.000000 0.000000 0.000000 10.000000 
L_Leg02 0.000000 0.000000 0.000000 0.000000 0.000000 0.000000 10.000000 
L_Leg03 0.000000 0.000000 0.000000 0.000000 0.000000 0.000000 10.000000 
L_Foot 0.000000 0.000000 0.000000 0.000000 0.000000 0.000000 10.000000 
L_Toe1_01 0.000000 0.000000 0.000000 0.000000 0.000000 0.000000 10.000000 
L_Toe2_01 0.000000 0.000000 0.000000 0.000000 0.000000 0.000000 10.000000 
L_Toe3_01 0.000000 0.000000 0.000000 0.000000 0.000000 0.000000 10.000000 
planeAlignerLeft 0.000000 0.000000 0.000000 0.000000 0.000000 0.000000 10.000000 
L_Toe1_02 0.000000 0.000000 0.000000 0.000000 0.000000 0.000000 10.000000 
L_Toe1_03 0.000000 0.000000 0.000000 0.000000 0.000000 0.000000 10.000000 
L_Toe2_02 0.000000 0.000000 0.000000 0.000000 0.000000 0.000000 10.000000 
L_Toe2_03 0.000000 0.000000 0.000000 0.000000 0.000000 0.000000 10.000000 
L_Toe3_02 0.000000 0.000000 0.000000 0.000000 0.000000 0.000000 10.000000 
L_Toe3_03 0.000000 0.000000 0.000000 0.000000 0.000000 0.000000 10.000000 
planeLockWeightLeft 0.000000 0.000000 0.000000 0.000000 0.000000 0.000000 10.000000 
R_Leg01 0.000000 0.000000 0.000000 0.000000 0.000000 0.000000 10.000000 
R_Leg02 0.000000 0.000000 0.000000 0.000000 0.000000 0.000000 10.000000 
R_Leg03 0.000000 0.000000 0.000000 0.000000 0.000000 0.000000 10.000000 
R_Foot 0.000000 0.000000 0.000000 0.000000 0.000000 0.000000 10.000000 
planeAlignerRight 0.000000 0.000000 0.000000 0.000000 0.000000 0.000000 10.000000 
R_Toe1_01 0.000000 0.000000 0.000000 0.000000 0.000000 0.000000 10.000000 
R_Toe2_01 0.000000 0.000000 0.000000 0.000000 0.000000 0.000000 10.000000 
R_Toe3_01 0.000000 0.000000 0.000000 0.000000 0.000000 0.000000 10.000000 
planeLockWeightRight 0.000000 0.000000 0.000000 0.000000 0.000000 0.000000 10.000000 
R_Toe1_02 0.000000 0.000000 0.000000 0.000000 0.000000 0.000000 10.000000 
R_Toe1_03 0.000000 0.000000 0.000000 0.000000 0.000000 0.000000 10.000000 
R_Toe2_02 0.000000 0.000000 0.000000 0.000000 0.000000 0.000000 10.000000 
R_Toe2_03 0.000000 0.000000 0.000000 0.000000 0.000000 0.000000 10.000000 
R_Toe3_02 0.000000 0.000000 0.000000 0.000000 0.000000 0.000000 10.000000 
R_Toe3_03 0.000000 0.000000 0.000000 0.000000 0.000000 0.000000 10.000000 
Rear_Leg02 0.000000 0.000000 0.000000 0.000000 0.000000 0.000000 10.000000 
Rear_Leg03 0.000000 0.000000 0.000000 0.000000 0.000000 0.000000 10.000000 
Rear_Leg04 0.000000 0.000000 0.000000 0.000000 0.000000 0.000000 10.000000 
Rear_Foot 0.000000 0.000000 0.000000 0.000000 0.000000 0.000000 10.000000 
planeAlignerCenter 0.000000 0.000000 0.000000 0.000000 0.000000 0.000000 10.000000 
Rear_Toe1_01 0.000000 0.000000 0.000000 0.000000 0.000000 0.000000 10.000000 
Rear_Toe2_01 0.000000 0.000000 0.000000 0.000000 0.000000 0.000000 10.000000 
Rear_Toe3_01 0.000000 0.000000 0.000000 0.000000 0.000000 0.000000 10.000000 
planeLockWeightCenter 0.000000 0.000000 0.000000 0.000000 0.000000 0.000000 10.000000 
Rear_Toe1_02 0.000000 0.000000 0.000000 0.000000 0.000000 0.000000 10.000000 
Rear_Toe1_03 0.000000 0.000000 0.000000 0.000000 0.000000 0.000000 10.000000 
Rear_Toe2_02 0.000000 0.000000 0.000000 0.000000 0.000000 0.000000 10.000000 
Rear_Toe2_03 0.000000 0.000000 0.000000 0.000000 0.000000 0.000000 10.000000 
Rear_Toe3_02 0.000000 0.000000 0.000000 0.000000 0.000000 0.000000 10.000000 
Rear_Toe3_03 0.000000 0.000000 0.000000 0.000000 0.000000 0.000000 10.000000 
Back_Bone 0.000000 0.000000 0.000000 0.000000 0.000000 0.000000 10.000000 
Head 0.000000 0.000000 0.000000 0.000000 0.000000 0.000000 10.000000 
Motor_Bone 0.000000 0.000000 0.000000 0.000000 0.000000 0.000000 10.000000 
Ping_Mechanism 0.000000 0.000000 0.000000 0.000000 0.000000 0.000000 10.000000 
BN_LookIK 0.000000 0.000000 0.000000 0.000000 0.000000 0.000000 10.000000 
bottomMouth 0.000000 0.000000 0.000000 0.000000 0.000000 0.000000 10.000000 
L_Mouth01 0.000000 0.000000 0.000000 0.000000 0.000000 0.000000 10.000000 
L_mouthFront 0.000000 0.000000 0.000000 0.000000 0.000000 0.000000 10.000000 
mouthGun 0.000000 0.000000 0.000000 0.000000 0.000000 0.000000 10.000000 
R_Mouth01 0.000000 0.000000 0.000000 0.000000 0.000000 0.000000 10.000000 
R_mouthFront 0.000000 0.000000 0.000000 0.000000 0.000000 0.000000 10.000000 
TopMouth 0.000000 0.000000 0.000000 0.000000 0.000000 0.000000 10.000000 
weapon_bone 0.000000 0.000000 0.000000 0.000000 0.000000 0.000000 10.000000 
#Beginning of Data. Separated by tabs
#Fr	Tx	Ty	Tz	Rx	Ry	Rz	SF
[Pinger_Root]
73 0.000000 0.000000 0.000000 -0.000070 -0.000028 -43.739845 0.000000
74 0.000000 0.000000 0.000000 -0.000070 -0.000028 -44.426636 0.000000
75 0.000000 0.000000 0.000000 -0.000069 -0.000029 -44.853325 0.000000
[Pelvis]
73 -470.396729 547.688599 3379.171631 -64.297104 -75.467010 79.909019 3455.435791
74 -397.828094 605.217468 3476.654053 -58.680737 -73.384506 73.187370 3551.292480
75 -350.428955 641.943115 3540.895264 -56.412434 -71.996475 69.433769 3615.636963
[L_Hip]
73 5.766392 125.831482 872.656799 160.158691 -45.484905 122.312202 881.701050
74 5.766392 125.831482 872.656799 160.158691 -45.484905 122.312202 881.701050
75 5.766392 125.831482 872.656799 160.158691 -45.484905 122.312202 881.701050
[R_Hip]
73 5.765438 125.836372 -872.654907 38.087841 49.812687 125.703735 881.699829
74 5.765438 125.836372 -872.654907 38.087841 49.812687 125.703735 881.699829
75 5.765438 125.836372 -872.654907 38.087841 49.812687 125.703735 881.699829
[Rear_Leg01]
73 -192.298416 -925.602966 -0.001907 136.407654 4.570497 -152.262817 945.367432
74 -192.298416 -925.602966 -0.001907 136.162430 6.653684 -154.069427 945.367432
75 -192.298416 -925.602966 -0.001907 136.537521 8.559034 -155.736191 945.367432
[Spine1]
73 290.604584 5.007505 0.000477 -15.370622 26.684732 -6.248397 290.647736
74 290.604584 5.007505 0.000477 -13.059461 24.155106 -4.565157 290.647736
75 290.604584 5.007505 0.000477 -10.644079 21.331369 -2.756448 290.647736
[L_Leg01]
73 761.932007 -0.002384 -0.069261 31.776222 0.316083 1.732090 761.932068
74 761.932007 -0.002384 -0.069261 21.232916 -17.181673 11.150638 761.932068
75 761.932007 -0.002384 -0.069261 8.884898 -33.183510 21.894266 761.932068
[L_Leg02]
73 1441.140503 -0.000954 -0.000715 5.687571 -0.139172 -156.592392 1441.140503
74 1441.140503 -0.000954 -0.000715 7.207201 -0.078380 -170.197632 1441.140503
75 1441.140503 -0.000954 -0.000715 7.557817 -0.066074 -173.469864 1441.140503
[L_Leg03]
73 1686.963989 -0.000715 -0.000954 -0.043047 0.019208 121.029053 1686.963989
74 1686.963989 -0.000715 -0.000954 -0.042891 0.019554 121.953072 1686.963989
75 1686.963989 -0.000715 -0.000954 -0.042863 0.019615 122.117012 1686.963989
[L_Foot]
73 3041.570068 -30.715107 11.297464 -44.389175 21.459999 49.145782 3041.746094
74 3041.570068 -30.715107 11.297464 -30.573917 21.121946 58.221283 3041.746094
75 3041.570068 -30.715107 11.297464 -19.170696 20.819872 59.343777 3041.746094
[L_Toe1_01]
73 -188.216690 -224.732346 -21.137953 89.330788 -2.396121 -161.427643 293.899567
74 -188.216690 -224.732346 -21.137953 89.330788 -2.396121 -161.427643 293.899567
75 -188.216690 -224.732346 -21.137953 89.330788 -2.396121 -161.427643 293.899567
[L_Toe2_01]
73 200.746536 -219.926590 148.838394 -78.791496 -10.652695 -43.374847 332.896027
74 200.746536 -219.926590 148.838394 -78.791496 -10.652695 -43.374847 332.896027
75 200.746536 -219.926590 148.838394 -78.791496 -10.652695 -43.374847 332.896027
[L_Toe3_01]
73 188.832520 -219.859131 -191.078659 -109.186691 26.104874 -48.222931 347.140900
74 188.832520 -219.859131 -191.078659 -109.186691 26.104877 -48.222935 347.140900
75 188.832520 -219.859131 -191.078659 -109.186691 26.104874 -48.222931 347.140900
[planeAlignerLeft]
73 0.812531 -811.448792 -0.314951 0.000000 -90.000000 -90.001900 811.449280
74 0.812531 -811.448792 -0.314951 0.000000 -90.000000 -90.001900 811.449280
75 0.812531 -811.448792 -0.314951 0.000000 -90.000000 -90.001900 811.449280
[L_Toe1_02]
73 413.761139 0.000477 0.000000 0.000203 -25.410625 -0.000182 413.761139
74 413.761139 0.000477 0.000000 0.000203 -25.410625 -0.000182 413.761139
75 413.761139 0.000477 0.000000 0.000203 -25.410625 -0.000182 413.761139
[L_Toe1_03]
73 464.317322 0.000358 -0.000089 0.004933 62.473137 0.004933 464.317322
74 464.317322 0.000358 -0.000089 0.004933 62.473137 0.004933 464.317322
75 464.317322 0.000358 -0.000089 0.004933 62.473137 0.004933 464.317322
[L_Toe2_02]
73 342.235809 -0.000477 0.000238 -0.000101 -70.104240 0.000129 342.235809
74 342.235809 -0.000477 0.000238 -0.000101 -70.104240 0.000129 342.235809
75 342.235809 -0.000477 0.000238 -0.000101 -70.104240 0.000129 342.235809
[L_Toe2_03]
73 420.210846 -0.000715 0.000000 0.016997 82.081528 0.016997 420.210846
74 420.210846 -0.000715 0.000000 0.016997 82.081528 0.016997 420.210846
75 420.210846 -0.000715 0.000000 0.016997 82.081528 0.016997 420.210846
[L_Toe3_02]
73 329.270111 0.000954 0.000000 0.001178 -80.668365 0.001178 329.270111
74 329.270111 0.000954 0.000000 0.001178 -80.668365 0.001178 329.270111
75 329.270111 0.000954 0.000000 0.001178 -80.668365 0.001178 329.270111
[L_Toe3_03]
73 439.137451 -0.001907 0.000954 -179.996323 77.872643 -179.992813 439.137451
74 439.137451 -0.001907 0.000954 -179.996323 77.872643 -179.992813 439.137451
75 439.137451 -0.001907 0.000954 -179.996323 77.872643 -179.992813 439.137451
[planeLockWeightLeft]
73 -0.000954 0.000238 -0.000305 -0.011826 -0.004376 0.005620 0.001029
74 -0.000954 0.000238 -0.000305 -0.011826 -0.004376 0.005620 0.001029
75 -0.000954 0.000238 -0.000305 -0.011826 -0.004376 0.005620 0.001029
[R_Leg01]
73 761.455627 -0.001907 -0.000358 102.192123 -71.538490 13.524286 761.455688
74 761.455627 -0.001907 -0.000358 98.669464 -72.983894 16.343594 761.455688
75 761.455627 -0.001907 -0.000358 94.110985 -74.092567 20.513887 761.455688
[R_Leg02]
73 1441.140625 0.000000 -0.000238 -3.615674 -1.628316 163.433365 1441.140625
74 1441.140625 0.000000 -0.000238 -3.597329 -1.623246 164.552505 1441.140625
75 1441.140625 0.000000 -0.000238 -3.565088 -1.611203 166.148514 1441.140625
[R_Leg03]
73 1686.963989 0.000954 0.001431 0.115246 -0.072138 142.279663 1686.963989
74 1686.963989 0.000954 0.001431 0.115247 -0.072137 142.278168 1686.963989
75 1686.963989 0.000954 0.001431 0.115248 -0.072135 142.276672 1686.963989
[R_Foot]
73 3041.560059 -30.531288 -11.204481 28.017349 -19.006731 59.463737 3041.734131
74 3041.560059 -30.531288 -11.204481 25.834795 -18.995754 58.693188 3041.734131
75 3041.560059 -30.531288 -11.204481 24.429678 -18.977493 57.569370 3041.734131
[planeAlignerRight]
73 -0.635147 -812.270569 -0.364304 0.000000 -89.960434 -90.005180 812.270874
74 -0.635147 -812.270569 -0.364304 0.000000 -89.960434 -90.005180 812.270874
75 -0.635147 -812.270569 -0.364304 0.000000 -89.960434 -90.005180 812.270874
[R_Toe1_01]
73 -188.383347 -224.864899 21.052242 90.478722 3.231926 -161.378860 294.101532
74 -188.383347 -224.864899 21.052242 90.478722 3.231926 -161.378860 294.101532
75 -188.383347 -224.864899 21.052242 90.478722 3.231926 -161.378860 294.101532
[R_Toe2_01]
73 200.637817 -220.002121 -148.787384 -105.368958 18.813929 -49.808262 332.857574
74 200.637817 -220.002121 -148.787384 -105.368958 18.813929 -49.808262 332.857574
75 200.637817 -220.002121 -148.787384 -105.368958 18.813929 -49.808262 332.857574
[R_Toe3_01]
73 188.606735 -220.092957 191.126343 -76.041084 -6.322367 -46.892487 347.192566
74 188.606735 -220.092957 191.126343 -76.041084 -6.322367 -46.892487 347.192566
75 188.606735 -220.092957 191.126343 -76.041084 -6.322367 -46.892487 347.192566
[planeLockWeightRight]
73 -0.000477 0.000000 0.000000 -0.011823 -0.004379 -0.000027 0.000477
74 -0.000477 0.000000 0.000000 -0.011823 -0.004379 -0.000027 0.000477
75 -0.000477 0.000000 0.000000 -0.011823 -0.004379 -0.000027 0.000477
[R_Toe1_02]
73 413.762085 0.000477 -0.000119 0.001401 -23.743965 0.001401 413.762085
74 413.762085 0.000477 -0.000119 0.001401 -23.743965 0.001401 413.762085
75 413.762085 0.000477 -0.000119 0.001401 -23.743965 0.001401 413.762085
[R_Toe1_03]
73 464.317810 0.000000 0.001088 0.008919 74.877419 0.008919 464.317810
74 464.317810 0.000000 0.001088 0.008919 74.877419 0.008919 464.317810
75 464.317810 0.000000 0.001088 0.008919 74.877419 0.008919 464.317810
[R_Toe2_02]
73 342.234741 -0.000954 0.000238 0.001188 -72.306625 0.001188 342.234741
74 342.234741 -0.000954 0.000238 0.001188 -72.306610 0.001188 342.234741
75 342.234741 -0.000954 0.000238 0.001188 -72.306541 0.001188 342.234741
[R_Toe2_03]
73 420.210846 0.000715 -0.000268 0.028206 85.230583 0.028206 420.210846
74 420.210846 0.000715 -0.000268 0.028206 85.230423 0.028206 420.210846
75 420.210846 0.000715 -0.000268 0.028205 85.230461 0.028205 420.210846
[R_Toe3_02]
73 329.270355 -0.000477 -0.000954 0.001177 -80.843628 0.001177 329.270355
74 329.270355 -0.000477 -0.000954 0.001177 -80.843628 0.001177 329.270355
75 329.270355 -0.000477 -0.000954 0.001177 -80.843628 0.001177 329.270355
[R_Toe3_03]
73 439.137939 0.000238 0.001431 -179.996658 77.077271 -179.993134 439.137939
74 439.137939 0.000238 0.001431 -179.996658 77.077332 -179.993134 439.137939
75 439.137939 0.000238 0.001431 -179.996658 77.077377 -179.993134 439.137939
[Rear_Leg02]
73 1162.777710 -0.029802 0.005960 0.057466 0.082779 -140.819626 1162.777710
74 1162.777710 -0.029802 0.005960 0.068103 0.072108 -136.186417 1162.777710
75 1162.777710 -0.029802 0.005960 0.069524 0.070739 -133.906296 1162.777710
[Rear_Leg03]
73 607.192505 -0.013351 -0.073195 0.010402 -0.005292 70.284859 607.192505
74 607.192505 -0.013351 -0.073195 0.010468 -0.005156 68.800285 607.192505
75 607.192505 -0.013351 -0.073195 0.010501 -0.005087 68.052696 607.192505
[Rear_Leg04]
73 995.874512 -0.020504 -0.011921 -0.040793 -0.017462 71.014870 995.874573
74 995.874512 -0.020504 -0.011921 -0.040267 -0.018644 67.671227 995.874573
75 995.874512 -0.020504 -0.011921 -0.039992 -0.019225 66.012100 995.874573
[Rear_Foot]
73 3096.176270 -0.067472 -0.041425 -179.911179 60.425030 15.593633 3096.176270
74 3096.176270 -0.067472 -0.041425 -179.909912 60.298668 14.384391 3096.176270
75 3096.176270 -0.067472 -0.041425 -179.912674 61.307381 14.105016 3096.176270
[planeAlignerCenter]
73 0.350077 0.966311 -838.790894 0.000009 0.000003 -179.999985 838.791565
74 0.350077 0.966311 -838.790894 0.000009 0.000003 -179.999985 838.791565
75 0.350077 0.966311 -838.790894 0.000009 0.000003 -179.999985 838.791565
[Rear_Toe1_01]
73 0.653352 83.966492 -371.173737 0.293177 41.923447 90.411575 380.553192
74 0.653352 83.966492 -371.173737 0.293221 41.923416 90.411613 380.553192
75 0.653352 83.966492 -371.173737 0.293264 41.923382 90.411636 380.553192
[Rear_Toe2_01]
73 178.200760 -294.826019 -362.060547 -2.183583 34.543125 -64.361664 499.765686
74 178.200760 -294.826019 -362.060547 -2.183551 34.543091 -64.361664 499.765686
75 178.200760 -294.826019 -362.060547 -2.183523 34.543053 -64.361649 499.765686
[Rear_Toe3_01]
73 -153.359680 -308.780914 -362.060852 3.870838 33.514248 -112.318695 499.952881
74 -153.359680 -308.780914 -362.060852 3.870838 33.514248 -112.318695 499.952881
75 -153.359680 -308.780914 -362.060852 3.870838 33.514248 -112.318695 499.952881
[planeLockWeightCenter]
73 -0.000062 0.000238 0.000000 -0.011814 -0.004373 -0.000015 0.000246
74 -0.000062 0.000238 0.000000 -0.011814 -0.004373 -0.000015 0.000246
75 -0.000062 0.000238 0.000000 -0.011814 -0.004373 -0.000015 0.000246
[Rear_Toe1_02]
73 379.707825 0.194073 0.000477 -0.000242 -31.674217 0.006934 379.707855
74 379.707825 0.194073 0.000477 -0.000242 -31.674265 0.006934 379.707855
75 379.707825 0.194073 0.000477 -0.000242 -31.674313 0.006934 379.707855
[Rear_Toe1_03]
73 500.129700 0.165701 0.000119 -0.000106 51.877888 0.007293 500.129761
74 500.129700 0.165701 0.000119 -0.000106 51.878021 0.007293 500.129761
75 500.129700 0.165701 0.000119 -0.000106 51.878162 0.007293 500.129761
[Rear_Toe2_02]
73 340.494507 0.000238 -0.000954 0.001192 -69.854523 0.001192 340.494507
74 340.494507 0.000238 -0.000954 0.001192 -69.854523 0.001192 340.494507
75 340.494507 0.000238 -0.000954 0.001192 -69.854523 0.001192 340.494507
[Rear_Toe2_03]
73 433.103577 0.000000 0.000238 0.006694 69.804291 0.006694 433.103546
74 433.103577 0.000000 0.000238 0.006694 69.804291 0.006694 433.103546
75 433.103577 0.000000 0.000238 0.006694 69.804291 0.006694 433.103546
[Rear_Toe3_02]
73 340.494141 -0.000358 -0.000477 0.008285 -67.268761 -0.009458 340.494171
74 340.494141 -0.000358 -0.000477 0.008285 -67.268761 -0.009458 340.494171
75 340.494141 -0.000358 -0.000477 0.008285 -67.268761 -0.009458 340.494171
[Rear_Toe3_03]
73 433.103577 0.001431 -0.000238 -0.000971 65.950180 -0.004546 433.103546
74 433.103577 0.001431 -0.000238 -0.000971 65.950256 -0.004546 433.103546
75 433.103577 0.001431 -0.000238 -0.000971 65.950302 -0.004546 433.103546
[Back_Bone]
73 1312.175781 -701.934692 0.000954 0.000023 -0.000007 -85.606667 1488.125488
74 1312.175781 -701.934692 0.000954 0.000023 -0.000007 -85.606667 1488.125488
75 1312.175781 -701.934692 0.000954 0.000023 -0.000007 -85.606667 1488.125488
[Head]
73 1406.159424 809.709290 0.001431 -0.001185 -1.475623 7.908519 1622.625488
74 1406.159424 809.709290 0.001431 -0.001004 -1.475624 7.894470 1622.625488
75 1406.159424 809.709290 0.001431 -0.000823 -1.475624 7.880421 1622.625488
[Motor_Bone]
73 1158.364380 -417.834747 0.000477 -1.298103 -0.496916 -105.887367 1231.419434
74 1158.364380 -417.834747 0.000477 -1.033560 -0.374431 -105.894814 1231.419434
75 1158.364380 -417.834747 0.000477 -0.769035 -0.251913 -105.901703 1231.419434
[Ping_Mechanism]
73 1234.247925 -431.938782 -7.167053 0.000103 -0.000053 82.120995 1307.666016
74 1234.232910 -432.690125 -6.665436 0.000103 -0.000053 82.120995 1307.897583
75 1234.217896 -433.441467 -6.163819 0.000103 -0.000053 82.120995 1308.129639
[BN_LookIK]
73 193.241119 1380.371704 -0.002861 0.000000 89.965736 -31.038179 1393.832153
74 193.241119 1380.371704 -0.002861 0.000000 89.965736 -31.038179 1393.832153
75 193.241119 1380.371704 -0.002861 0.000000 89.965736 -31.038179 1393.832153
[bottomMouth]
73 -435.092926 615.759399 -0.000954 -0.000022 0.000016 73.527184 753.966492
74 -435.092926 615.759399 -0.000954 -0.000022 0.000016 73.527184 753.966492
75 -435.092926 615.759399 -0.000954 -0.000022 0.000016 73.527184 753.966492
[L_Mouth01]
73 554.440979 7.658243 838.222046 150.204178 23.759130 109.605339 1005.027161
74 554.440979 7.658243 838.222046 150.204178 23.759130 109.605339 1005.027161
75 554.440979 7.658243 838.222046 150.204178 23.759130 109.605339 1005.027161
[L_mouthFront]
73 551.629089 934.514771 339.150421 0.000081 2.804060 79.119301 1136.941284
74 551.629089 934.514771 339.150421 0.000081 2.804060 79.119301 1136.941284
75 551.629089 934.514771 339.150421 0.000081 2.804060 79.119301 1136.941284
[mouthGun]
73 55.332661 1627.420898 0.000000 0.000023 0.000009 -11.038128 1628.361328
74 55.332661 1627.420898 0.000000 0.000023 0.000009 -11.038128 1628.361328
75 55.332661 1627.420898 0.000000 0.000023 0.000009 -11.038128 1628.361328
[R_Mouth01]
73 554.442383 7.659197 -838.223938 29.795891 -23.759109 109.605331 1005.029541
74 554.442383 7.659197 -838.223938 29.795891 -23.759109 109.605331 1005.029541
75 554.442383 7.659197 -838.223938 29.795891 -23.759109 109.605331 1005.029541
[R_mouthFront]
73 551.629089 934.514282 -339.151367 0.000029 -2.803930 79.119133 1136.941162
74 551.629089 934.514282 -339.151367 0.000029 -2.803930 79.119133 1136.941162
75 551.629089 934.514282 -339.151367 0.000029 -2.803930 79.119133 1136.941162
[TopMouth]
73 461.269867 -56.106091 -0.008583 -0.000059 -0.000268 92.025169 464.669525
74 461.269867 -56.106091 -0.008583 -0.000059 -0.000268 92.025169 464.669525
75 461.269867 -56.106091 -0.008583 -0.000059 -0.000268 92.025169 464.669525
[weapon_bone]
73 -987.239868 1448.372803 0.001431 0.000000 89.965736 -31.038221 1752.833740
74 -987.239868 1448.372803 0.001431 0.000000 89.965736 -31.038221 1752.833740
75 -987.239868 1448.372803 0.001431 0.000000 89.965736 -31.038221 1752.833740
